<?xml version="1.0" encoding="UTF-8" standalone="no"?>
<!-- Created with Inkscape (http://www.inkscape.org/) -->

<svg
   xmlns:dc="http://purl.org/dc/elements/1.1/"
   xmlns:cc="http://creativecommons.org/ns#"
   xmlns:rdf="http://www.w3.org/1999/02/22-rdf-syntax-ns#"
   xmlns:svg="http://www.w3.org/2000/svg"
   xmlns="http://www.w3.org/2000/svg"
   xmlns:sodipodi="http://sodipodi.sourceforge.net/DTD/sodipodi-0.dtd"
   xmlns:inkscape="http://www.inkscape.org/namespaces/inkscape"
   width="210mm"
   height="297mm"
   viewBox="0 0 210 297"
   version="1.1"
   id="svg8"
   inkscape:version="0.92.4 (5da689c313, 2019-01-14)"
   sodipodi:docname="Batman.svg">
  <defs
     id="defs2" />
  <sodipodi:namedview
     id="base"
     pagecolor="#ffffff"
     bordercolor="#666666"
     borderopacity="1.0"
     inkscape:pageopacity="0.0"
     inkscape:pageshadow="2"
     inkscape:zoom="1.4"
     inkscape:cx="403.5185"
     inkscape:cy="611.23748"
     inkscape:document-units="mm"
     inkscape:current-layer="layer1"
     showgrid="false"
     showguides="false"
     inkscape:guide-bbox="true"
     inkscape:window-width="1920"
     inkscape:window-height="1017"
     inkscape:window-x="1912"
     inkscape:window-y="-8"
     inkscape:window-maximized="1">
    <sodipodi:guide
       position="183.69642,162.52977"
       orientation="0,1"
       id="guide832"
       inkscape:locked="false" />
  </sodipodi:namedview>
  <metadata
     id="metadata5">
    <rdf:RDF>
      <cc:Work
         rdf:about="">
        <dc:format>image/svg+xml</dc:format>
        <dc:type
           rdf:resource="http://purl.org/dc/dcmitype/StillImage" />
        <dc:title></dc:title>
      </cc:Work>
    </rdf:RDF>
  </metadata>
  <g
     inkscape:label="Capa 1"
     inkscape:groupmode="layer"
     id="layer1"
     style="opacity:1">
    <path
       style="fill:none;stroke:#000000;stroke-width:0.26458332px;stroke-linecap:butt;stroke-linejoin:miter;stroke-opacity:1"
       d="m 107.53422,179.26041 c 0,0 7.0439,-25.99379 17.5759,-26.26934 4.88443,-0.12779 10.20535,9.82738 10.20535,9.82738 0,0 13.60246,-14.90168 21.16667,-8.50446 6.64566,5.62038 -1.70089,22.48958 -1.70089,22.48958 17.90886,-12.71008 29.8279,-19.4542 28.72619,-42.52232 0.0383,-27.29703 -44.97917,-41.010419 -44.97917,-41.010419 0,0 13.77229,25.689279 -7.9375,30.049109 -17.78546,3.57173 -15.68601,-34.017859 -15.68601,-34.017859 l -4.53571,9.827381 c 0,0 -2.38797,-0.419968 -3.59078,-0.377975 -1.08682,0.03794 -3.2128,0.566965 -3.2128,0.566965 L 98.651784,89.49107 c 0,0 2.149086,35.69435 -14.174108,34.39583 -22.768785,-1.81128 -9.638392,-30.616069 -9.638392,-30.616069 0,0 -45.035695,15.054769 -45.546128,41.577389 -0.583887,30.33935 29.482142,41.1994 29.482142,41.1994 0,0 -8.829823,-17.97191 0.755951,-22.67857 6.173771,-3.03135 18.142858,9.82738 18.142858,9.82738 0,0 7.552132,-10.82795 12.85119,-9.82738 9.915563,1.87227 15.686013,25.89136 15.686013,25.89136 0,0 4.34673,17.00893 -2.07887,16.63096 -36.282065,-2.13423 -86.635543,-13.94631 -85.422619,-61.61012 0.87298,-34.305141 42.035978,-54.917839 87.123509,-55.373513 43.6791,-0.44144 84.60435,22.480963 85.61161,55.940473 1.25606,41.72449 -41.94968,59.15327 -81.26488,60.85417 -6.04197,0.2614 -2.64584,-16.44197 -2.64584,-16.44197 z"
       id="path830"
       inkscape:connector-curvature="0"
       sodipodi:nodetypes="cscscccsccsccscscscscsssssc" />
  </g>
</svg>
